<mxfile host="app.diagrams.net" modified="2022-03-12T06:27:15.551Z" agent="5.0 (Windows NT 10.0; Win64; x64) AppleWebKit/537.36 (KHTML, like Gecko) Chrome/99.0.4844.51 Safari/537.36 Edg/99.0.1150.39" etag="99VMggtFqiJQ4goHhyh1" version="17.1.2" type="github">
  <diagram id="_RPSAy_L1pVo-dNgxcZ6" name="第 1 页">
    <mxGraphModel dx="968" dy="600" grid="1" gridSize="10" guides="1" tooltips="1" connect="1" arrows="1" fold="1" page="1" pageScale="1" pageWidth="827" pageHeight="1169" math="0" shadow="0">
      <root>
        <mxCell id="0" />
        <mxCell id="1" parent="0" />
        <mxCell id="Lvgmar0G9neAODof-2q4-1" value="&lt;b style=&quot;font-size: 14px&quot;&gt;A类[父类、基类]&lt;br&gt;共用属性&lt;br&gt;共有方法&lt;br&gt;&lt;/b&gt;" style="rounded=0;whiteSpace=wrap;html=1;fillColor=#dae8fc;strokeColor=#6c8ebf;" vertex="1" parent="1">
          <mxGeometry x="320" y="40" width="120" height="60" as="geometry" />
        </mxCell>
        <mxCell id="Lvgmar0G9neAODof-2q4-3" value="" style="rounded=0;whiteSpace=wrap;html=1;" vertex="1" parent="1">
          <mxGeometry x="510" y="280" width="120" height="60" as="geometry" />
        </mxCell>
        <mxCell id="Lvgmar0G9neAODof-2q4-4" value="" style="rounded=0;whiteSpace=wrap;html=1;" vertex="1" parent="1">
          <mxGeometry x="120" y="280" width="120" height="60" as="geometry" />
        </mxCell>
        <mxCell id="Lvgmar0G9neAODof-2q4-19" style="edgeStyle=orthogonalEdgeStyle;rounded=0;orthogonalLoop=1;jettySize=auto;html=1;exitX=0.5;exitY=0;exitDx=0;exitDy=0;fontSize=14;" edge="1" parent="1" source="Lvgmar0G9neAODof-2q4-5" target="Lvgmar0G9neAODof-2q4-1">
          <mxGeometry relative="1" as="geometry" />
        </mxCell>
        <mxCell id="Lvgmar0G9neAODof-2q4-5" value="&lt;b&gt;B类[子类、派生类]&lt;br&gt;特有属性&lt;br&gt;特有方法&lt;/b&gt;" style="rounded=0;whiteSpace=wrap;html=1;fillColor=#fff2cc;strokeColor=#d6b656;" vertex="1" parent="1">
          <mxGeometry x="200" y="160" width="120" height="60" as="geometry" />
        </mxCell>
        <mxCell id="Lvgmar0G9neAODof-2q4-21" style="edgeStyle=orthogonalEdgeStyle;rounded=0;orthogonalLoop=1;jettySize=auto;html=1;exitX=0.5;exitY=0;exitDx=0;exitDy=0;entryX=1;entryY=0.5;entryDx=0;entryDy=0;fontSize=14;" edge="1" parent="1" source="Lvgmar0G9neAODof-2q4-6" target="Lvgmar0G9neAODof-2q4-1">
          <mxGeometry relative="1" as="geometry" />
        </mxCell>
        <mxCell id="Lvgmar0G9neAODof-2q4-6" value="&lt;b&gt;C类[子类、派生类]&lt;br&gt;特有属性&lt;br&gt;特有方法&lt;/b&gt;" style="rounded=0;whiteSpace=wrap;html=1;fillColor=#fff2cc;strokeColor=#d6b656;" vertex="1" parent="1">
          <mxGeometry x="440" y="160" width="120" height="60" as="geometry" />
        </mxCell>
        <mxCell id="Lvgmar0G9neAODof-2q4-24" value="extends" style="text;html=1;strokeColor=none;fillColor=none;align=center;verticalAlign=middle;whiteSpace=wrap;rounded=0;fontSize=14;" vertex="1" parent="1">
          <mxGeometry x="290" y="130" width="60" height="30" as="geometry" />
        </mxCell>
        <mxCell id="Lvgmar0G9neAODof-2q4-25" value="extends" style="text;html=1;strokeColor=none;fillColor=none;align=center;verticalAlign=middle;whiteSpace=wrap;rounded=0;fontSize=14;rotation=270;" vertex="1" parent="1">
          <mxGeometry x="490" y="100" width="60" height="30" as="geometry" />
        </mxCell>
      </root>
    </mxGraphModel>
  </diagram>
</mxfile>
